<?xml version="1.0" encoding="UTF-8" standalone="no"?>
<svg xmlns="http://www.w3.org/2000/svg" version="1.1" width="281.25" height="281.25">
 <metadata id="metadata21"/>
 <rect width="221.56" height="221.56" x="30" y="29.687" id="rect605" fill="none" stroke="#008000" stroke-width="2.5"/>
 <path d="m 445.74577,268.11777 a 120.653,117.30152 0 1 1 -241.306,0 120.653,117.30152 0 1 1 241.306,0 z" transform="matrix(1.036029,0,0,1.06563,-196.18054,-145.08936)" id="path607" fill="none" stroke="#208080" stroke-width="2.379"/>
 <path d="m 32.8159,51.6986 215.6563,0" id="path613" fill="none" stroke="#000000" stroke-width="0.625"/>
 <path d="m 141.094,139.5077 85.8881,87.0602" id="path632" fill="none" stroke="#000000" stroke-width="0.62"/>
 <path d="M 44.3879,54.7815 31.869,51.7397 44.3423,48.5316 c -0.7074,1.4435 -0.6781,4.7244 0.0456,6.2499 z" id="path646" fill-rule="evenodd" stroke="#000000" stroke-width="0.255"/>
 <path d="m 221.3754,216.5349 6.6226,11.0508 -11.0414,-6.6309 c 1.5246,-0.5094 3.8405,-2.8335 4.4188,-4.4199 z" id="path647" fill-rule="evenodd" stroke="#000000" stroke-width="0.255"/>
 <path d="m 237.3985,48.4626 12.4443,3.3334 -12.5448,2.9158 c 0.7409,-1.4266 0.7883,-4.7072 0.1005,-6.2492 z" id="path648" fill-rule="evenodd" stroke="#000000" stroke-width="0.255"/>
 <path d="m 251.95398,301.26584 a 1.328125,1.328125 0 1 1 -2.65625,0 1.328125,1.328125 0 1 1 2.65625,0 z" transform="translate(-109.375,-161.7372)" id="path649" fill-rule="evenodd" stroke="#000000" stroke-width="0.125"/>
 <rect width="42.5" height="10" x="118.23" y="46.614" id="rect727" fill="#ffffff" fill-rule="evenodd"/>
 <text x="249.6" y="241.84" transform="translate(-121.3638,-183.8777)" id="text679" font-family="Linux Libertine O" font-size="20"><tspan x="249.6" y="241.84" id="tspan682">ù</tspan>
 </text>
 <rect width="42.5" height="10" x="234.9" y="-24.802" transform="matrix(0.653329,0.757074,-0.757074,0.653329,0,0)" id="rect728" fill="#ffffff" fill-rule="evenodd"/>
 <text x="243.81" y="2.246" transform="matrix(0.707107,0.707107,-0.707107,0.707107,0,0)" id="text659" font-family="Linux Libertine O" font-size="20"><tspan x="243.81" y="2.246" id="tspan684">r=1</tspan>
 </text>
</svg>
